HIERARCHY
ROOT Hips
{
	OFFSET 0.000000 0.000000 0.000000
	CHANNELS 6 Xposition Yposition Zposition Xrotation Yrotation Zrotation
	JOINT LeftUpLeg_virtual
	{
		OFFSET 0.000000 0.000000 0.000000
		CHANNELS 3 Xrotation Yrotation Zrotation
		JOINT LeftUpLeg
		{
			OFFSET 13.026900 -6.336304 -1.092800
			CHANNELS 3 Xrotation Yrotation Zrotation
			JOINT LeftLeg
			{
				OFFSET 0.524474 -46.096886 9.782700
				CHANNELS 3 Xrotation Yrotation Zrotation
				JOINT LeftFoot
				{
					OFFSET -0.524474 -53.427422 -12.948200
					CHANNELS 3 Xrotation Yrotation Zrotation
					JOINT LeftToeBase
					{
						OFFSET 0.192200 -14.009700 16.364100
						CHANNELS 3 Xrotation Yrotation Zrotation
						JOINT LeftToe_End
						{
							OFFSET -1.784700 -0.561700 9.474800
							CHANNELS 3 Xrotation Yrotation Zrotation
							End Site
							{
								OFFSET 0 0 0
							}
						}
					}
				}
			}
		}
	}
	JOINT RightUpLeg_virtual
	{
		OFFSET 0.000000 0.000000 0.000000
		CHANNELS 3 Xrotation Yrotation Zrotation
		JOINT RightUpLeg
		{
			OFFSET -12.883000 -6.336304 -1.092800
			CHANNELS 3 Xrotation Yrotation Zrotation
			JOINT RightLeg
			{
				OFFSET -0.524587 -46.096825 9.782800
				CHANNELS 3 Xrotation Yrotation Zrotation
				JOINT RightFoot
				{
					OFFSET 0.524587 -53.427383 -12.948300
					CHANNELS 3 Xrotation Yrotation Zrotation
					JOINT RightToeBase
					{
						OFFSET -0.192200 -14.009700 16.364100
						CHANNELS 3 Xrotation Yrotation Zrotation
						JOINT RightToe_End
						{
							OFFSET 1.784700 -0.561700 9.474800
							CHANNELS 3 Xrotation Yrotation Zrotation
							End Site
							{
								OFFSET 0 0 0
							}
						}
					}
				}
			}
		}
	}
	JOINT Spine_virtual
	{
		OFFSET 0.000000 0.000000 0.000000
		CHANNELS 3 Xrotation Yrotation Zrotation
		JOINT Spine
		{
			OFFSET 0.072000 7.257294 -0.789700
			CHANNELS 3 Xrotation Yrotation Zrotation
			JOINT Spine1
			{
				OFFSET 0.000000 12.508769 -0.658067
				CHANNELS 3 Xrotation Yrotation Zrotation
				JOINT Spine1_split
				{
					OFFSET 0.000000 12.508769 -0.658067
					CHANNELS 3 Xrotation Yrotation Zrotation
					JOINT Spine2
					{
						OFFSET 0.000000 12.508769 -0.658067
						CHANNELS 3 Xrotation Yrotation Zrotation
						JOINT Neck_virtual
						{
							OFFSET 0.000000 0.000000 0.000000
							CHANNELS 3 Xrotation Yrotation Zrotation
							JOINT Neck
							{
								OFFSET 0.000000 14.033295 7.520400
								CHANNELS 3 Xrotation Yrotation Zrotation
								JOINT Head
								{
									OFFSET 0.000000 8.198502 5.703100
									CHANNELS 3 Xrotation Yrotation Zrotation
									JOINT HeadTop_End
									{
										OFFSET 0.000000 17.760803 13.332701
										CHANNELS 3 Xrotation Yrotation Zrotation
										End Site
										{
											OFFSET 0 0 0
										}
									}
								}
							}
						}
						JOINT LeftShoulder_virtual
						{
							OFFSET 0.000000 0.000000 0.000000
							CHANNELS 3 Xrotation Yrotation Zrotation
							JOINT LeftShoulder
							{
								OFFSET 6.292450 5.785301 -0.669000
								CHANNELS 3 Xrotation Yrotation Zrotation
								JOINT LeftShoulder_split
								{
									OFFSET 6.292450 5.785301 -0.669000
									CHANNELS 3 Xrotation Yrotation Zrotation
									JOINT LeftArm
									{
										OFFSET 13.907140 -6.093903 1.965100
										CHANNELS 3 Xrotation Yrotation Zrotation
										JOINT LeftForeArm
										{
											OFFSET 34.140198 0.000000 0.000000
											CHANNELS 3 Xrotation Yrotation Zrotation
											JOINT LeftHand
											{
												OFFSET 40.960209 0.000000 0.000000
												CHANNELS 3 Xrotation Yrotation Zrotation
												End Site
												{
													OFFSET 0 0 0
												}
											}
										}
									}
								}
							}
						}
						JOINT RightShoulder_virtual
						{
							OFFSET 0.000000 0.000000 0.000000
							CHANNELS 3 Xrotation Yrotation Zrotation
							JOINT RightShoulder
							{
								OFFSET -6.292450 5.785301 -0.669000
								CHANNELS 3 Xrotation Yrotation Zrotation
								JOINT RightShoulder_split
								{
									OFFSET -6.292450 5.785301 -0.669000
									CHANNELS 3 Xrotation Yrotation Zrotation
									JOINT RightArm
									{
										OFFSET -13.907140 -6.093903 1.965100
										CHANNELS 3 Xrotation Yrotation Zrotation
										JOINT RightForeArm
										{
											OFFSET -34.140198 0.000000 0.000000
											CHANNELS 3 Xrotation Yrotation Zrotation
											JOINT RightHand
											{
												OFFSET -40.960209 0.000000 0.000000
												CHANNELS 3 Xrotation Yrotation Zrotation
												End Site
												{
													OFFSET 0 0 0
												}
											}
										}
									}
								}
							}
						}
					}
				}
			}
		}
	}
}
MOTION
Frames: 11
Frame Time: 0.03333333
4.021513 116.904907 -4.349459 0.000000 0.000000 0.000000 -4.707353 9.096705 0.351280 -20.066980 14.475662 11.010372 21.147246 2.181811 4.951537 2.144165 -10.219170 -13.970684 -2.129854 -2.673501 1.075039 0.000000 0.000000 0.000000 -4.553452 9.571607 0.312243 7.485886 -12.412470 3.267778 12.834583 -1.501888 -2.721234 -16.516403 -19.387953 9.631876 -0.044536 1.124456 -8.935482 0.000000 0.000000 0.000000 -4.851693 10.570894 -0.153453 2.870785 -3.088004 3.953513 -2.126707 0.157469 3.514637 0.071875 -0.275109 -0.044292 0.000000 0.000000 0.000000 0.309027 2.370254 3.428111 15.027483 -0.191645 0.416400 -0.974246 -20.771773 -14.341230 0.000000 0.000000 0.000000 -1.800081 1.011633 2.678696 -0.995647 -19.543755 -12.504846 1.395311 0.632969 -5.166489 10.243002 -3.700470 -67.665728 3.740011 -6.913237 4.938403 0.000000 0.000000 0.000000 -0.947093 1.144109 3.616243 4.985659 1.993113 15.483615 -6.206800 1.103251 -0.205053 19.973630 10.585735 57.088859 -0.737937 -7.361358 -0.908417 0.000000 0.000000 0.000000 
3.993664 117.064842 -4.381033 0.000000 0.000000 0.000000 -4.314291 8.385841 0.213073 -19.888947 14.634179 11.100425 20.763212 2.183406 4.762659 1.903654 -9.493611 -13.946212 -1.932450 -2.689447 1.109448 0.000000 0.000000 0.000000 -4.165674 8.874090 0.165577 6.851627 -12.469457 3.040455 12.665628 -1.459926 -2.639128 -16.066012 -18.719551 9.768647 -0.198878 1.101642 -8.791606 0.000000 0.000000 0.000000 -4.360818 9.943068 -0.340570 2.932863 -3.388918 4.056749 -2.338128 0.049102 3.514647 0.074254 -0.285270 -0.037327 0.000000 0.000000 0.000000 0.159963 2.268283 3.435021 14.740600 0.000939 0.318989 -1.186485 -19.252570 -14.569210 0.000000 0.000000 0.000000 -1.998027 0.918604 2.654700 -0.979540 -19.698503 -12.906740 1.659787 0.707874 -4.889081 10.901358 -2.162721 -67.978919 3.792785 -7.470891 4.712714 0.000000 0.000000 0.000000 -1.027710 1.042736 3.626964 5.088870 1.338778 15.573569 -6.789778 1.127455 -0.236501 22.149620 10.658860 55.822566 -1.164212 -7.579825 -0.366145 0.000000 0.000000 0.000000 
3.960557 117.213257 -4.455069 0.000000 0.000000 0.000000 -3.929846 7.507719 0.022474 -19.687187 14.758955 11.227651 20.447081 2.190238 4.586493 1.632719 -8.606712 -14.028351 -1.864786 -2.706976 1.115651 0.000000 0.000000 0.000000 -3.786819 8.013029 -0.032412 6.165068 -12.564556 2.807527 12.514180 -1.427492 -2.540245 -15.656175 -17.886105 9.804820 -0.254576 1.076276 -8.613272 0.000000 0.000000 0.000000 -3.876171 9.141189 -0.582181 3.030354 -3.603452 4.173889 -2.468158 -0.025290 3.530101 0.084332 -0.268130 -0.030576 0.000000 0.000000 0.000000 0.042067 2.188803 3.462578 14.347892 0.199725 0.212865 -1.435266 -17.812355 -14.754395 0.000000 0.000000 0.000000 -2.130464 0.852216 2.642117 -0.931727 -19.808250 -13.188175 1.765398 0.790973 -4.659968 11.331161 -1.033688 -68.466745 3.899964 -7.845470 4.605950 0.000000 0.000000 0.000000 -1.047782 0.984260 3.656757 5.140368 1.104425 15.712642 -7.443851 1.047678 -0.273870 22.882932 10.085684 54.734810 -1.571302 -8.367630 0.259185 0.000000 0.000000 0.000000 
3.921080 117.344261 -4.567427 0.000000 0.000000 0.000000 -3.557604 6.543031 -0.202707 -19.500188 14.808091 11.378928 20.220698 2.196460 4.439528 1.350727 -7.606397 -14.195927 -1.938154 -2.723279 1.079443 0.000000 0.000000 0.000000 -3.424639 7.046808 -0.262428 5.440886 -12.696658 2.574461 12.377679 -1.419938 -2.427057 -15.241656 -16.920100 9.753319 -0.232198 1.044383 -8.395952 0.000000 0.000000 0.000000 -3.422633 8.212811 -0.855036 3.156389 -3.722078 4.290509 -2.520400 -0.069722 3.537791 0.097927 -0.229461 -0.029146 0.000000 0.000000 0.000000 -0.046749 2.132446 3.485113 13.860037 0.413640 0.137160 -1.658228 -16.436017 -14.888605 0.000000 0.000000 0.000000 -2.192850 0.808688 2.613755 -0.845355 -19.862667 -13.332020 1.730457 0.839917 -4.471303 11.612922 -0.514660 -69.012873 4.012337 -7.931943 4.579236 0.000000 0.000000 0.000000 -1.025483 0.964554 3.681527 5.125990 1.263793 15.923333 -7.926224 0.933803 -0.320840 22.258279 9.074629 53.947426 -1.872890 -9.395627 0.874760 0.000000 0.000000 0.000000 
3.884421 117.471497 -4.706793 0.000000 0.000000 0.000000 -3.198376 5.545741 -0.444701 -19.319422 14.773667 11.529003 20.066105 2.196755 4.330495 1.089030 -6.551939 -14.414781 -2.108102 -2.735881 0.999532 0.000000 0.000000 0.000000 -3.080658 6.023184 -0.502017 4.694761 -12.839863 2.338506 12.215556 -1.419528 -2.304322 -14.748610 -15.848634 9.698116 -0.270542 1.009697 -8.139350 0.000000 0.000000 0.000000 -3.028863 7.208577 -1.130620 3.289307 -3.765002 4.393026 -2.507871 -0.097547 3.513353 0.107541 -0.196479 -0.034441 0.000000 0.000000 0.000000 -0.112533 2.088883 3.474123 13.317027 0.647205 0.133448 -1.758932 -15.163061 -14.961017 0.000000 0.000000 0.000000 -2.182897 0.776609 2.549462 -0.713464 -19.838612 -13.322871 1.607168 0.801831 -4.335926 11.774651 -0.647075 -69.517536 4.038918 -7.740290 4.572725 0.000000 0.000000 0.000000 -0.963997 0.966911 3.667497 5.035040 1.698052 16.166465 -8.041130 0.868096 -0.377093 20.699471 8.053568 53.494025 -2.042369 -10.171629 1.405896 0.000000 0.000000 0.000000 
3.858655 117.597977 -4.875109 0.000000 0.000000 0.000000 -2.849212 4.569298 -0.682264 -19.159097 14.673302 11.667882 19.945836 2.189459 4.256089 0.877654 -5.490615 -14.652427 -2.283015 -2.743663 0.879050 0.000000 0.000000 0.000000 -2.751438 4.999148 -0.734939 3.969192 -12.968622 2.100732 11.989826 -1.420762 -2.184075 -14.148026 -14.709048 9.672965 -0.462639 0.974299 -7.842874 0.000000 0.000000 0.000000 -2.689364 6.167502 -1.379282 3.398784 -3.762344 4.475895 -2.450211 -0.126986 3.444182 0.102173 -0.176381 -0.042212 0.000000 0.000000 0.000000 -0.154773 2.046549 3.410144 12.760789 0.910463 0.209739 -1.703895 -14.022379 -14.949606 0.000000 0.000000 0.000000 -2.107807 0.745131 2.441510 -0.555333 -19.722064 -13.190653 1.441241 0.722096 -4.226876 11.861636 -1.305369 -69.906447 3.931113 -7.430902 4.555003 0.000000 0.000000 0.000000 -0.872731 0.969486 3.596039 4.867212 2.323533 16.381502 -7.762706 0.956796 -0.460859 18.727516 7.548239 53.364405 -2.067464 -10.312343 1.797012 0.000000 0.000000 0.000000 
3.847325 117.737137 -5.051809 0.000000 0.000000 0.000000 -2.517483 3.639868 -0.900316 -19.013081 14.548605 11.785699 19.795796 2.169961 4.210109 0.753605 -4.483715 -14.875460 -2.451798 -2.750013 0.746427 0.000000 0.000000 0.000000 -2.438239 4.022754 -0.951457 3.305133 -13.058518 1.878859 11.673582 -1.446435 -2.078260 -13.515843 -13.562587 9.613684 -0.716527 0.931007 -7.508599 0.000000 0.000000 0.000000 -2.391199 5.144739 -1.595569 3.463969 -3.744455 4.526430 -2.358816 -0.165309 3.332357 0.097392 -0.182905 -0.046879 0.000000 0.000000 0.000000 -0.164457 1.998990 3.302408 12.206775 1.201985 0.364192 -1.506788 -13.036155 -14.843622 0.000000 0.000000 0.000000 -1.984949 0.706973 2.297972 -0.382068 -19.539182 -12.971077 1.279618 0.583203 -4.145810 11.920304 -2.311986 -70.146767 3.661245 -7.193825 4.511853 0.000000 0.000000 0.000000 -0.745089 0.959745 3.477178 4.637283 3.067354 16.509146 -7.306276 1.104245 -0.538645 16.736381 7.945516 53.516072 -1.975916 -9.804448 2.038253 0.000000 0.000000 0.000000 
3.858936 117.893600 -5.246485 0.000000 0.000000 0.000000 -2.207685 2.766590 -1.095965 -18.862344 14.447991 11.874444 19.567415 2.146546 4.186275 0.734099 -3.568166 -15.045419 -2.619762 -2.761833 0.628687 0.000000 0.000000 0.000000 -2.145315 3.124965 -1.150008 2.716962 -13.112862 1.668909 11.241451 -1.521669 -1.985838 -12.912006 -12.461562 9.467725 -0.928106 0.877573 -7.146140 0.000000 0.000000 0.000000 -2.113219 4.174826 -1.776360 3.486561 -3.729378 4.540430 -2.227808 -0.211179 3.199837 0.098444 -0.202905 -0.038209 0.000000 0.000000 0.000000 -0.145108 1.946233 3.171106 11.645782 1.507638 0.570474 -1.244255 -12.258794 -14.647880 0.000000 0.000000 0.000000 -1.816286 0.662816 2.146222 -0.209631 -19.318674 -12.722762 1.109551 0.400282 -4.107353 11.914239 -3.504252 -70.273658 3.263242 -7.065000 4.468122 0.000000 0.000000 0.000000 -0.572127 0.938561 3.334427 4.368733 3.885491 16.516676 -6.804707 1.276810 -0.605153 14.949717 9.240595 53.962056 -1.859181 -8.780128 2.130113 0.000000 0.000000 0.000000 
3.884486 118.065247 -5.451895 0.000000 0.000000 0.000000 -1.928492 1.961304 -1.270552 -18.711568 14.412690 11.928534 19.237540 2.135929 4.177282 0.808121 -2.763294 -15.122973 -2.760079 -2.781456 0.529994 0.000000 0.000000 0.000000 -1.883141 2.331789 -1.332708 2.197311 -13.143716 1.471672 10.757691 -1.651282 -1.898560 -12.324966 -11.444806 9.259681 -1.118646 0.821305 -6.776752 0.000000 0.000000 0.000000 -1.844644 3.295372 -1.925549 3.480593 -3.711646 4.516789 -2.056837 -0.254438 3.070617 0.102428 -0.214074 -0.027227 0.000000 0.000000 0.000000 -0.095187 1.898854 3.044518 11.051073 1.805995 0.793482 -1.030465 -11.720610 -14.364805 0.000000 0.000000 0.000000 -1.621640 0.619995 2.010582 -0.066552 -19.127573 -12.514526 0.954762 0.166578 -4.096732 11.797371 -4.816555 -70.318587 2.829242 -6.998910 4.476154 0.000000 0.000000 0.000000 -0.360457 0.916266 3.198981 4.086087 4.801438 16.405536 -6.487460 1.290323 -0.581938 13.405648 11.288639 54.630250 -1.779017 -7.567208 2.105071 0.000000 0.000000 0.000000 
3.931147 118.256477 -5.677259 0.000000 0.000000 0.000000 -1.678525 1.214144 -1.430165 -18.549592 14.463182 11.947486 18.810288 2.147485 4.182759 0.953486 -2.083374 -15.099137 -2.877289 -2.808937 0.462060 0.000000 0.000000 0.000000 -1.650312 1.619296 -1.501793 1.712980 -13.160955 1.277552 10.267299 -1.821691 -1.806762 -11.673866 -10.521433 9.071522 -1.344868 0.769828 -6.425453 0.000000 0.000000 0.000000 -1.583390 2.526047 -2.055091 3.458023 -3.674813 4.455341 -1.843139 -0.276841 2.959582 0.107255 -0.220141 -0.025662 0.000000 0.000000 0.000000 -0.009246 1.869450 2.948087 10.398390 2.071838 1.009731 -0.935926 -11.476775 -14.004034 0.000000 0.000000 0.000000 -1.409685 0.592702 1.908119 0.037115 -18.997642 -12.381071 0.784057 -0.096528 -4.118782 11.513813 -6.296915 -70.300337 2.433880 -6.854015 4.576651 0.000000 0.000000 0.000000 -0.117917 0.908193 3.091866 3.806178 5.801980 16.188978 -6.429317 1.113700 -0.408059 12.018940 13.820857 55.486138 -1.814007 -6.340223 2.026538 0.000000 0.000000 0.000000 
3.991658 118.469009 -5.921656 0.000000 0.000000 0.000000 -1.457406 0.536641 -1.578781 -18.380954 14.594825 11.934087 18.296393 2.195887 4.202158 1.130584 -1.524770 -14.973824 -2.921836 -2.842810 0.414073 0.000000 0.000000 0.000000 -1.443446 0.978075 -1.657000 1.268853 -13.165118 1.094248 9.737372 -2.002165 -1.708142 -10.940804 -9.680974 8.979946 -1.617616 0.727641 -6.105287 0.000000 0.000000 0.000000 -1.335105 1.866699 -2.172430 3.426986 -3.595481 4.371754 -1.593729 -0.269418 2.871159 0.102388 -0.210750 -0.028591 0.000000 0.000000 0.000000 0.108614 1.866976 2.880040 9.684367 2.290030 1.200934 -0.977911 -11.555413 -13.568317 0.000000 0.000000 0.000000 -1.181217 0.590464 1.843185 0.084592 -18.921441 -12.343594 0.647464 -0.370336 -4.147246 11.009267 -8.013047 -70.238626 2.148391 -6.525167 4.797489 0.000000 0.000000 0.000000 0.142457 0.922959 3.008093 3.545643 6.873221 15.893994 -6.508625 0.883995 -0.123218 10.767613 16.607924 56.431986 -1.983101 -5.160333 1.941454 0.000000 0.000000 0.000000 
